<svg width="24" height="24" viewBox="0 0 24 24" fill="none" xmlns="http://www.w3.org/2000/svg">
<path d="M13.4847 4.66773C14.6812 3.76917 16.6881 3.17214 19.0704 4.63346C20.5285 5.52788 21.5266 7.52715 21.1821 10.0954C20.8396 12.649 19.1525 15.7656 15.2143 18.6805C13.6321 19.8516 13.0546 20.25 12 20.25C10.9454 20.25 10.3679 19.8516 8.78573 18.6805C4.84752 15.7656 3.16037 12.649 2.81789 10.0954C2.47343 7.52715 3.47146 5.52788 4.92959 4.63346C7.31191 3.17214 9.31875 3.76917 10.5153 4.66773L10.5361 4.68341C10.8065 4.88649 11.0388 5.06092 11.2246 5.18256C11.3212 5.24578 11.4281 5.31016 11.5391 5.3603C11.6444 5.40789 11.8062 5.46743 12 5.46743C12.1938 5.46743 12.3556 5.40789 12.4609 5.3603C12.5719 5.31016 12.6788 5.24578 12.7754 5.18256C12.9612 5.06093 13.1934 4.88651 13.4638 4.68344L13.4847 4.66773Z" stroke="#FCFCFC" stroke-width="1.5" stroke-linecap="round"/>
</svg>
