<svg width="26" height="26" viewBox="0 0 26 26" fill="none" xmlns="http://www.w3.org/2000/svg">
<path d="M11.916 7.04163V21.125" stroke="#1BD2DA" stroke-width="1.5" stroke-linecap="round"/>
<path d="M11.916 21.125C11.6752 21.125 11.1832 20.8627 10.1992 20.3383C9.19912 19.8052 7.81744 19.2748 6.04706 18.9419C4.06107 18.5684 3.06808 18.3817 2.61705 17.8303C2.16602 17.279 2.16602 16.3959 2.16602 14.6297V7.68789C2.16602 5.75628 2.16602 4.79048 2.86878 4.19573C3.57154 3.60097 4.39672 3.75614 6.04706 4.06649C9.30472 4.67909 11.2463 5.96052 11.916 6.69619C12.5857 5.96052 14.5273 4.67909 17.785 4.06649C19.4353 3.75614 20.2605 3.60097 20.9633 4.19573C21.666 4.79048 21.666 5.75628 21.666 7.68789V10.8333" stroke="#1BD2DA" stroke-width="1.5" stroke-linecap="round" stroke-linejoin="round"/>
<path d="M22.4315 16.9887L18.848 20.5722L19.9087 21.6329L23.4921 18.0494L22.4315 16.9887ZM16.8021 18.5263L20.3856 14.9428L19.3249 13.8822L15.7414 17.4657L16.8021 18.5263ZM16.4692 21.3186C16.2794 21.3592 16.1266 21.3918 15.9952 21.4162C15.8626 21.4409 15.7734 21.453 15.7112 21.4569C15.58 21.4652 15.7033 21.4295 15.8241 21.5502L14.7634 22.6109C15.0953 22.9428 15.511 22.9727 15.8064 22.9539C16.0883 22.936 16.4335 22.8601 16.7829 22.7854L16.4692 21.3186ZM14.5889 20.5914C14.5142 20.9408 14.4384 21.286 14.4204 21.5679C14.4016 21.8633 14.4315 22.279 14.7634 22.6109L15.8241 21.5502C15.9448 21.671 15.9091 21.7943 15.9174 21.6631C15.9214 21.6009 15.9335 21.5117 15.9581 21.3792C15.9825 21.2477 16.0152 21.0949 16.0557 20.9051L14.5889 20.5914ZM22.4315 14.9428C22.8268 15.3381 22.9158 15.4363 22.9624 15.517L24.2615 14.767C24.0912 14.4721 23.8191 14.2091 23.4921 13.8822L22.4315 14.9428ZM23.4921 18.0494C23.8191 17.7224 24.0912 17.4594 24.2615 17.1645L22.9624 16.4145C22.9158 16.4953 22.8268 16.5935 22.4315 16.9887L23.4921 18.0494ZM22.9624 15.517C23.1228 15.7947 23.1228 16.1368 22.9624 16.4145L24.2615 17.1645C24.6898 16.4227 24.6898 15.5088 24.2615 14.767L22.9624 15.517ZM23.4921 13.8822C23.1652 13.5552 22.9022 13.2831 22.6073 13.1128L21.8573 14.4119C21.9381 14.4585 22.0362 14.5476 22.4315 14.9428L23.4921 13.8822ZM20.3856 14.9428C20.7808 14.5476 20.879 14.4585 20.9598 14.4119L20.2098 13.1128C19.9149 13.2831 19.6519 13.5552 19.3249 13.8822L20.3856 14.9428ZM22.6073 13.1128C21.8655 12.6846 20.9516 12.6846 20.2098 13.1128L20.9598 14.4119C21.2375 14.2515 21.5796 14.2515 21.8573 14.4119L22.6073 13.1128ZM18.848 20.5722C18.6249 20.7953 18.3232 20.9361 17.9066 21.0424C17.698 21.0957 17.4761 21.1367 17.231 21.179C16.9947 21.2199 16.727 21.2635 16.4692 21.3186L16.7829 22.7854C17.0031 22.7383 17.2288 22.7016 17.4864 22.6571C17.735 22.6142 18.0072 22.5648 18.2777 22.4958C18.8193 22.3575 19.4158 22.1257 19.9087 21.6329L18.848 20.5722ZM16.0557 20.9051C16.1109 20.6473 16.1544 20.3796 16.1953 20.1433C16.2376 19.8982 16.2786 19.6763 16.3319 19.4677C16.4382 19.0511 16.579 18.7494 16.8021 18.5263L15.7414 17.4657C15.2486 17.9585 15.0168 18.555 14.8785 19.0966C14.8095 19.3671 14.7601 19.6393 14.7172 19.888C14.6727 20.1455 14.636 20.3713 14.5889 20.5914L16.0557 20.9051Z" fill="#1BD2DA"/>
</svg>
